<svg width="24" height="24" viewBox="0 0 24 24" fill="none" xmlns="http://www.w3.org/2000/svg">
<path d="M12.2833 6.14242H9.2121V9.21364H6.14088V12.2849H9.2121V15.3561H12.2833V12.2849H15.3545V9.21364H12.2833V6.14242ZM24 21.3265L19.5636 16.8901C20.7798 15.1488 21.4985 13.0342 21.4985 10.7492C21.4985 4.8126 16.6844 0 10.7493 0C4.81414 0 0 4.8126 0 10.7492C0 16.6859 4.81258 21.4985 10.7493 21.4985C13.0342 21.4985 15.1503 20.7798 16.8917 19.5636L21.328 24L24 21.3265ZM10.7477 18.4288C6.5079 18.4288 3.06968 14.9921 3.06968 10.7508C3.06968 6.50944 6.5079 3.07274 10.7477 3.07274C14.9891 3.07274 18.4257 6.50944 18.4257 10.7508C18.4273 14.9921 14.9906 18.4288 10.7477 18.4288Z" fill="white"/>
</svg>
